# xmcd
#
# Track frame offsets:
#	225
#	5110
#	24706
#	55993
#	65526
#	92526
#	95661
#	144180
#	154107
#	186873
#	245429
#	262287
#	268236
#	273446
#	286598
#	297867
#	302655
#
# Disc length: 4179 seconds
#
# Revision: 1
# Processed by: cddbd v1.4PL0 Copyright (c) Steve Scherf et al.
# Submitted via: EasyCDDAExtractor 5.0.6
#
DISCID=fd105011
DTITLE=Rusty DeWees - The Logger's Best Cuts
DYEAR=2000
DGENRE=Comedy
TTITLE0=Stuc Saw
TTITLE1=Deer Jackin'
TTITLE2=Marshall Bucker
TTITLE3=Jenny Templeton Water Skis
TTITLE4=Fruz Wife
TTITLE5=Chief Wendall
TTITLE6=Liddle And Craig
TTITLE7=Locroast Intolerant, Kidney Stones, Leaves, North Country Stripper
TTITLE8=Real Woodchucks
TTITLE9=Flatlanders
TTITLE10=Traditional Fiddle, Banjo Tunes
TTITLE11=15 percent
TTITLE12=Pat From Fairfield
TTITLE13=Airport Succatash
TTITLE14=Cindy Crawford
TTITLE15=Walmart Smart
TTITLE16=Promo
EXTD=
EXTT0=
EXTT1=
EXTT2=
EXTT3=
EXTT4=
EXTT5=
EXTT6=
EXTT7=
EXTT8=
EXTT9=
EXTT10=
EXTT11=
EXTT12=
EXTT13=
EXTT14=
EXTT15=
EXTT16=
PLAYORDER=
